<svg width="184" height="65" viewBox="0 0 184 65" fill="none" xmlns="http://www.w3.org/2000/svg">
<rect width="184" height="65" fill="#6B77E5"/>
<path d="M42.2761 38.252C41.0041 38.252 39.8971 37.982 38.9551 37.442C38.0131 36.902 37.2811 36.14 36.7591 35.156C36.2431 34.172 35.9851 33.014 35.9851 31.682C35.9851 30.362 36.2641 29.213 36.8221 28.235C37.3861 27.257 38.1601 26.498 39.1441 25.958C40.1341 25.418 41.2681 25.148 42.5461 25.148C43.2181 25.148 43.8571 25.217 44.4631 25.355C45.0751 25.493 45.6031 25.667 46.0471 25.877L45.8311 27.821C45.3631 27.617 44.8561 27.449 44.3101 27.317C43.7641 27.185 43.1821 27.119 42.5641 27.119C41.5801 27.119 40.7701 27.32 40.1341 27.722C39.5041 28.124 39.0361 28.667 38.7301 29.351C38.4241 30.035 38.2711 30.806 38.2711 31.664C38.2711 32.558 38.4241 33.353 38.7301 34.049C39.0421 34.745 39.5101 35.291 40.1341 35.687C40.7641 36.083 41.5561 36.281 42.5101 36.281C42.7741 36.281 43.0711 36.26 43.4011 36.218C43.7311 36.176 44.0551 36.113 44.3731 36.029V33.455H42.5551V31.682H46.4611V37.298C46.0051 37.562 45.4141 37.787 44.6881 37.973C43.9621 38.159 43.1581 38.252 42.2761 38.252ZM52.6101 38.18C51.5421 38.18 50.6481 37.964 49.9281 37.532C49.2141 37.1 48.6741 36.53 48.3081 35.822C47.9481 35.108 47.7681 34.325 47.7681 33.473C47.7681 32.651 47.9361 31.895 48.2721 31.205C48.6141 30.509 49.1091 29.954 49.7571 29.54C50.4111 29.12 51.2031 28.91 52.1331 28.91C52.9491 28.91 53.6451 29.075 54.2211 29.405C54.7971 29.735 55.2351 30.191 55.5351 30.773C55.8411 31.349 55.9941 32.009 55.9941 32.753C55.9941 32.921 55.9821 33.098 55.9581 33.284C55.9401 33.464 55.9131 33.65 55.8771 33.842H49.8471C49.9311 34.496 50.1141 35.015 50.3961 35.399C50.6781 35.783 51.0291 36.062 51.4491 36.236C51.8691 36.404 52.3221 36.488 52.8081 36.488C53.2881 36.488 53.7501 36.431 54.1941 36.317C54.6441 36.197 55.0611 36.035 55.4451 35.831L55.5981 37.496C55.2561 37.664 54.8331 37.82 54.3291 37.964C53.8251 38.108 53.2521 38.18 52.6101 38.18ZM49.9371 32.474H53.9421C53.9421 32.15 53.8791 31.847 53.7531 31.565C53.6331 31.277 53.4381 31.046 53.1681 30.872C52.9041 30.692 52.5561 30.602 52.1241 30.602C51.4941 30.602 51.0021 30.773 50.6481 31.115C50.3001 31.457 50.0631 31.91 49.9371 32.474ZM60.5332 38.18C59.9692 38.18 59.5132 38.069 59.1652 37.847C58.8172 37.625 58.5622 37.343 58.4002 37.001C58.2382 36.653 58.1572 36.29 58.1572 35.912V30.692H56.7892L56.9692 29.063H58.1572V27.011L60.1642 26.804V29.063H62.2702V30.692H60.1642V34.967C60.1642 35.465 60.1942 35.825 60.2542 36.047C60.3142 36.263 60.4522 36.401 60.6682 36.461C60.8842 36.515 61.2322 36.542 61.7122 36.542H62.2522L62.0812 38.18H60.5332ZM73.7705 38.252C72.5105 38.252 71.3975 37.982 70.4315 37.442C69.4655 36.902 68.7095 36.143 68.1635 35.165C67.6175 34.181 67.3445 33.026 67.3445 31.7C67.3445 30.374 67.6235 29.222 68.1815 28.244C68.7395 27.26 69.5075 26.498 70.4855 25.958C71.4635 25.418 72.5825 25.148 73.8425 25.148C74.4965 25.148 75.1055 25.22 75.6695 25.364C76.2335 25.502 76.7225 25.676 77.1365 25.886L76.9115 27.857C76.4555 27.647 75.9755 27.473 75.4715 27.335C74.9675 27.191 74.4185 27.119 73.8245 27.119C72.9005 27.119 72.1265 27.32 71.5025 27.722C70.8845 28.118 70.4165 28.664 70.0985 29.36C69.7865 30.05 69.6305 30.83 69.6305 31.7C69.6305 32.57 69.7835 33.353 70.0895 34.049C70.4015 34.739 70.8635 35.285 71.4755 35.687C72.0935 36.083 72.8585 36.281 73.7705 36.281C74.3825 36.281 74.9375 36.215 75.4355 36.083C75.9395 35.951 76.4315 35.771 76.9115 35.543L77.1365 37.523C76.6685 37.739 76.1525 37.913 75.5885 38.045C75.0245 38.183 74.4185 38.252 73.7705 38.252ZM82.565 38.18C81.605 38.18 80.786 37.97 80.108 37.55C79.436 37.13 78.92 36.569 78.56 35.867C78.206 35.165 78.029 34.391 78.029 33.545C78.029 32.699 78.206 31.922 78.56 31.214C78.92 30.506 79.436 29.942 80.108 29.522C80.786 29.096 81.605 28.883 82.565 28.883C83.519 28.883 84.335 29.096 85.013 29.522C85.691 29.942 86.207 30.506 86.561 31.214C86.921 31.922 87.101 32.699 87.101 33.545C87.101 34.391 86.921 35.165 86.561 35.867C86.207 36.569 85.691 37.13 85.013 37.55C84.335 37.97 83.519 38.18 82.565 38.18ZM82.565 36.488C83.357 36.488 83.966 36.221 84.392 35.687C84.824 35.147 85.04 34.433 85.04 33.545C85.04 32.645 84.824 31.925 84.392 31.385C83.966 30.845 83.357 30.575 82.565 30.575C81.773 30.575 81.161 30.845 80.729 31.385C80.297 31.925 80.081 32.645 80.081 33.545C80.081 34.433 80.297 35.147 80.729 35.687C81.161 36.221 81.773 36.488 82.565 36.488ZM88.685 38V29.063H90.476L90.647 30.746L90.089 30.215C90.521 29.789 90.989 29.465 91.493 29.243C92.003 29.021 92.558 28.91 93.158 28.91C94.358 28.91 95.237 29.288 95.795 30.044C96.353 30.8 96.632 31.799 96.632 33.041V38H94.625V33.149C94.625 32.273 94.472 31.631 94.166 31.223C93.86 30.809 93.356 30.602 92.654 30.602C92.108 30.602 91.643 30.728 91.259 30.98C90.875 31.232 90.575 31.595 90.359 32.069L90.692 31.007V38H88.685ZM101.207 38.18C100.547 38.18 99.9714 38.111 99.4794 37.973C98.9874 37.829 98.5524 37.664 98.1744 37.478L98.3724 35.687C98.7324 35.921 99.1434 36.131 99.6054 36.317C100.067 36.497 100.577 36.587 101.135 36.587C101.627 36.587 102.002 36.509 102.26 36.353C102.518 36.191 102.647 35.945 102.647 35.615C102.647 35.357 102.572 35.147 102.422 34.985C102.272 34.817 102.068 34.676 101.81 34.562C101.558 34.442 101.273 34.328 100.955 34.22C100.457 34.052 100.007 33.863 99.6054 33.653C99.2034 33.437 98.8824 33.161 98.6424 32.825C98.4084 32.489 98.2914 32.054 98.2914 31.52C98.2914 31.028 98.4174 30.584 98.6694 30.188C98.9214 29.786 99.2934 29.468 99.7854 29.234C100.277 29 100.889 28.883 101.621 28.883C102.197 28.883 102.695 28.946 103.115 29.072C103.541 29.198 103.925 29.354 104.267 29.54L104.069 31.295C103.715 31.037 103.346 30.824 102.962 30.656C102.578 30.482 102.143 30.395 101.657 30.395C101.225 30.395 100.883 30.479 100.631 30.647C100.385 30.815 100.262 31.064 100.262 31.394C100.262 31.766 100.418 32.039 100.73 32.213C101.042 32.387 101.528 32.594 102.188 32.834C102.536 32.96 102.86 33.098 103.16 33.248C103.46 33.398 103.724 33.575 103.952 33.779C104.18 33.983 104.357 34.226 104.483 34.508C104.609 34.79 104.672 35.126 104.672 35.516C104.672 36.02 104.552 36.473 104.312 36.875C104.072 37.277 103.697 37.595 103.187 37.829C102.677 38.063 102.017 38.18 101.207 38.18ZM109.756 38.18C108.91 38.18 108.22 38.012 107.686 37.676C107.152 37.334 106.759 36.854 106.507 36.236C106.261 35.612 106.138 34.871 106.138 34.013V29.063H108.145V33.851C108.145 34.721 108.292 35.375 108.586 35.813C108.886 36.245 109.366 36.461 110.026 36.461C110.53 36.461 110.965 36.341 111.331 36.101C111.697 35.861 111.982 35.51 112.186 35.048L111.844 36.083V29.063H113.851V38H112.006L111.817 36.371L112.285 36.884C112.039 37.256 111.691 37.565 111.241 37.811C110.791 38.057 110.296 38.18 109.756 38.18ZM118.279 38.18C117.733 38.18 117.289 38.075 116.947 37.865C116.611 37.655 116.365 37.379 116.209 37.037C116.053 36.689 115.975 36.311 115.975 35.903V24.5H117.991V34.985C117.991 35.471 118.021 35.825 118.081 36.047C118.141 36.263 118.255 36.401 118.423 36.461C118.597 36.515 118.855 36.542 119.197 36.542L118.981 38.18H118.279ZM123.428 38.18C122.864 38.18 122.408 38.069 122.06 37.847C121.712 37.625 121.457 37.343 121.295 37.001C121.133 36.653 121.052 36.29 121.052 35.912V30.692H119.684L119.864 29.063H121.052V27.011L123.059 26.804V29.063H125.165V30.692H123.059V34.967C123.059 35.465 123.089 35.825 123.149 36.047C123.209 36.263 123.347 36.401 123.563 36.461C123.779 36.515 124.127 36.542 124.607 36.542H125.147L124.976 38.18H123.428ZM126.601 38V29.063H128.608V38H126.601ZM126.601 27.479V25.4H128.608V27.479H126.601ZM130.75 38V29.063H132.541L132.712 30.746L132.154 30.215C132.586 29.789 133.054 29.465 133.558 29.243C134.068 29.021 134.623 28.91 135.223 28.91C136.423 28.91 137.302 29.288 137.86 30.044C138.418 30.8 138.697 31.799 138.697 33.041V38H136.69V33.149C136.69 32.273 136.537 31.631 136.231 31.223C135.925 30.809 135.421 30.602 134.719 30.602C134.173 30.602 133.708 30.728 133.324 30.98C132.94 31.232 132.64 31.595 132.424 32.069L132.757 31.007V38H130.75ZM144.298 42.527C143.47 42.527 142.741 42.425 142.111 42.221C141.487 42.017 140.998 41.72 140.644 41.33C140.29 40.946 140.113 40.478 140.113 39.926C140.113 39.47 140.242 39.065 140.5 38.711C140.758 38.363 141.124 38.069 141.598 37.829C141.346 37.685 141.145 37.511 140.995 37.307C140.851 37.097 140.779 36.863 140.779 36.605C140.779 36.323 140.86 36.074 141.022 35.858C141.19 35.642 141.427 35.468 141.733 35.336C141.265 35.018 140.908 34.604 140.662 34.094C140.416 33.584 140.293 33.023 140.293 32.411C140.293 31.769 140.434 31.181 140.716 30.647C141.004 30.113 141.418 29.687 141.958 29.369C142.504 29.045 143.167 28.883 143.947 28.883C144.355 28.883 144.733 28.937 145.081 29.045C145.435 29.153 145.753 29.306 146.035 29.504C146.251 29.378 146.533 29.273 146.881 29.189C147.235 29.099 147.628 29.054 148.06 29.054C148.138 29.054 148.21 29.054 148.276 29.054C148.342 29.054 148.411 29.054 148.483 29.054L148.312 30.341C148.204 30.341 148.093 30.341 147.979 30.341C147.871 30.341 147.76 30.341 147.646 30.341C147.592 30.341 147.496 30.344 147.358 30.35C147.226 30.356 147.094 30.371 146.962 30.395C147.166 30.677 147.319 30.992 147.421 31.34C147.529 31.688 147.583 32.045 147.583 32.411C147.583 33.071 147.442 33.671 147.16 34.211C146.878 34.745 146.464 35.174 145.918 35.498C145.378 35.816 144.721 35.975 143.947 35.975C143.761 35.975 143.581 35.963 143.407 35.939C143.239 35.915 143.071 35.882 142.903 35.84C142.723 35.906 142.633 36.023 142.633 36.191C142.633 36.341 142.723 36.461 142.903 36.551C143.083 36.641 143.371 36.716 143.767 36.776L145.612 37.046C146.572 37.178 147.319 37.451 147.853 37.865C148.393 38.279 148.663 38.867 148.663 39.629C148.663 40.229 148.489 40.745 148.141 41.177C147.793 41.609 147.292 41.942 146.638 42.176C145.984 42.41 145.204 42.527 144.298 42.527ZM144.406 40.925C145.192 40.925 145.789 40.826 146.197 40.628C146.605 40.43 146.809 40.136 146.809 39.746C146.809 39.41 146.671 39.155 146.395 38.981C146.125 38.813 145.705 38.681 145.135 38.585L142.966 38.252C142.66 38.378 142.399 38.549 142.183 38.765C141.967 38.981 141.859 39.251 141.859 39.575C141.859 40.037 142.087 40.376 142.543 40.592C142.999 40.814 143.62 40.925 144.406 40.925ZM143.947 34.454C144.535 34.454 144.979 34.268 145.279 33.896C145.585 33.524 145.738 33.032 145.738 32.42C145.738 31.82 145.585 31.337 145.279 30.971C144.979 30.599 144.535 30.413 143.947 30.413C143.353 30.413 142.903 30.599 142.597 30.971C142.297 31.337 142.147 31.82 142.147 32.42C142.147 33.032 142.297 33.524 142.597 33.896C142.903 34.268 143.353 34.454 143.947 34.454Z" fill="white"/>
</svg>
